<svg width="43" height="43" viewBox="0 0 43 43" fill="none" xmlns="http://www.w3.org/2000/svg">
<path d="M17.7207 4.80286C16.1106 5.0594 14.6595 5.79919 13.5215 6.86835V0H11.002V6.86835C9.8639 5.79919 8.41287 5.0594 6.80273 4.80286V0H4.2832V30.3184C4.2832 34.2892 7.19904 37.5912 11.002 38.1971V43H13.5215V38.1971C17.3244 37.5912 20.2402 34.2892 20.2402 30.3184V0H17.7207V4.80286ZM17.7207 7.37094V13.6212C16.1106 13.8778 14.6595 14.6175 13.5215 15.6867V12.6816C13.5215 10.105 15.3163 7.94144 17.7207 7.37094ZM11.002 24.5051C9.8639 23.4359 8.41287 22.6961 6.80273 22.4396V16.1893C9.20712 16.7598 11.002 18.9234 11.002 21.5V24.5051ZM13.5215 21.5C13.5215 18.9234 15.3163 16.7598 17.7207 16.1893V22.4396C16.1106 22.6961 14.6595 23.4359 13.5215 24.5051V21.5ZM11.002 12.6816V15.6867C9.8639 14.6175 8.41287 13.8778 6.80273 13.6212V7.37094C9.20712 7.94144 11.002 10.105 11.002 12.6816ZM6.80273 30.3184V25.0077C9.20712 25.5782 11.002 27.7417 11.002 30.3184V35.6291C8.59757 35.0586 6.80273 32.895 6.80273 30.3184ZM13.5215 35.6291V30.3184C13.5215 27.7417 15.3163 25.5782 17.7207 25.0077V30.3184C17.7207 32.895 15.9259 35.0586 13.5215 35.6291Z" fill="white"/>
<path d="M36.1973 0V4.80286C34.5871 5.0594 33.1361 5.79919 31.998 6.86835V0H29.4785V6.86835C28.3405 5.79919 26.8894 5.0594 25.2793 4.80286V0H22.7598V30.3184C22.7598 34.2892 25.6756 37.5912 29.4785 38.1971V43H31.998V38.1971C35.801 37.5912 38.7168 34.2892 38.7168 30.3184V0H36.1973ZM36.1973 7.37094V13.6212C34.5871 13.8778 33.1361 14.6175 31.998 15.6867V12.6816C31.998 10.105 33.7929 7.94144 36.1973 7.37094ZM29.4785 24.5051C28.3405 23.4359 26.8894 22.6961 25.2793 22.4396V16.1893C27.6837 16.7598 29.4785 18.9234 29.4785 21.5V24.5051ZM31.998 21.5C31.998 18.9234 33.7929 16.7598 36.1973 16.1893V22.4396C34.5871 22.6961 33.1361 23.4359 31.998 24.5051V21.5ZM29.4785 12.6816V15.6867C28.3405 14.6175 26.8894 13.8778 25.2793 13.6212V7.37094C27.6837 7.94144 29.4785 10.105 29.4785 12.6816ZM25.2793 30.3184V25.0077C27.6837 25.5782 29.4785 27.7417 29.4785 30.3184V35.6291C27.0741 35.0586 25.2793 32.895 25.2793 30.3184ZM31.998 35.6291V30.3184C31.998 27.7417 33.7929 25.5782 36.1973 25.0077V30.3184C36.1973 32.895 34.4024 35.0586 31.998 35.6291Z" fill="white"/>
</svg>
