<svg width="46" height="46" viewBox="0 0 46 46" fill="none" xmlns="http://www.w3.org/2000/svg">
<g clip-path="url(#clip0)">
<path d="M10.7812 20.3047C4.83647 20.3047 0 25.1412 0 31.0859C0 37.0307 4.83647 41.8672 10.7812 41.8672C16.726 41.8672 21.5625 37.0307 21.5625 31.0859C21.5625 25.1412 16.726 20.3047 10.7812 20.3047ZM10.7812 39.1719C6.32275 39.1719 2.69531 35.5444 2.69531 31.0859C2.69531 26.6274 6.32275 23 10.7812 23C15.2397 23 18.8672 26.6274 18.8672 31.0859C18.8672 35.5444 15.2397 39.1719 10.7812 39.1719Z" fill="white"/>
<path d="M10.7812 27.043C8.552 27.043 6.73828 28.8567 6.73828 31.0859C6.73828 33.3152 8.552 35.1289 10.7812 35.1289C13.0105 35.1289 14.8242 33.3152 14.8242 31.0859C14.8242 28.8567 13.0105 27.043 10.7812 27.043ZM10.7812 32.4336C10.0383 32.4336 9.43359 31.8289 9.43359 31.0859C9.43359 30.343 10.0383 29.7383 10.7812 29.7383C11.5242 29.7383 12.1289 30.343 12.1289 31.0859C12.1289 31.8289 11.5242 32.4336 10.7812 32.4336Z" fill="white"/>
<path d="M43.3049 27.76V23C43.3049 20.0274 40.8868 17.6094 37.9142 17.6094H35.2189V10.8711C35.2189 10.1281 35.8236 9.52344 36.5666 9.52344V6.82812C34.3373 6.82812 32.5236 8.64185 32.5236 10.8711V17.6094H26.6083L23.3739 6.82812H25.6056V4.13281H4.04314V6.82812H6.73845V15.4296C4.46112 16.0185 2.32066 17.0987 0.489746 18.611L2.2059 20.6893C4.61098 18.7033 7.65654 17.6094 10.7814 17.6094C18.2125 17.6094 24.258 23.6549 24.258 31.0859V35.1289H29.9413C30.5849 38.9483 33.9148 41.8672 37.9142 41.8672C42.3727 41.8672 46.0002 38.2397 46.0002 33.7812C46.0002 31.392 44.9582 29.2417 43.3049 27.76ZM9.43376 14.9713V6.82812H20.56L23.7944 17.6094H19.7103C17.1498 15.9073 14.0797 14.9141 10.7814 14.9141C10.3304 14.9141 9.88087 14.9337 9.43376 14.9713ZM22.824 20.3047H37.9142C39.4005 20.3047 40.6095 21.5137 40.6095 23V26.1579C39.7662 25.8589 38.859 25.6953 37.9142 25.6953H26.0282C25.3161 23.6875 24.2187 21.8608 22.824 20.3047ZM26.7273 28.3906H31.8929C30.8945 29.5045 30.2003 30.8961 29.9413 32.4336H26.9533V31.0859C26.9533 30.1678 26.8754 29.2677 26.7273 28.3906ZM37.9142 39.1719C34.9417 39.1719 32.5236 36.7538 32.5236 33.7812C32.5236 30.8087 34.9417 28.3906 37.9142 28.3906C40.8868 28.3906 43.3049 30.8087 43.3049 33.7812C43.3049 36.7538 40.8868 39.1719 37.9142 39.1719Z" fill="white"/>
<path d="M39.2617 33.7812C39.2617 34.5256 38.6584 35.1289 37.9141 35.1289C37.1697 35.1289 36.5664 34.5256 36.5664 33.7812C36.5664 33.0369 37.1697 32.4336 37.9141 32.4336C38.6584 32.4336 39.2617 33.0369 39.2617 33.7812Z" fill="white"/>
</g>
<defs>
<clipPath id="clip0">
<rect width="46" height="46" fill="white"/>
</clipPath>
</defs>
</svg>
