<svg width="52" height="32" viewBox="0 0 52 32" fill="none" xmlns="http://www.w3.org/2000/svg">
<path d="M44.6197 18.7874V15.9492H39.0702L43.9329 0.664062H0.687134L5.54944 15.9488H0V26.0999H4.23547C4.3168 29.0254 6.72058 31.3812 9.6655 31.3812C12.6104 31.3812 15.0138 29.0254 15.0951 26.0999H29.5245C29.6059 29.0254 32.0096 31.3812 34.9546 31.3812C37.8995 31.3812 40.3029 29.0254 40.3842 26.0999H44.6201V21.8343H48.9531V24.5765H52V18.7874H44.6197ZM39.7661 3.71094L38.3041 8.30624H6.31552L4.85358 3.71094H39.7661ZM7.28473 11.3531H37.3349L35.873 15.9488H8.74667L7.28473 11.3531ZM9.6655 28.3343C8.34955 28.3343 7.27878 27.2635 7.27878 25.9476C7.27878 24.6316 8.34955 23.5609 9.6655 23.5609C10.9814 23.5609 12.0522 24.6316 12.0522 25.9476C12.0522 27.2635 10.9814 28.3343 9.6655 28.3343ZM34.9546 28.3343C33.6386 28.3343 32.5678 27.2635 32.5678 25.9476C32.5678 24.6316 33.6386 23.5609 34.9546 23.5609C36.2705 23.5609 37.3413 24.6316 37.3413 25.9476C37.3413 27.2635 36.2705 28.3343 34.9546 28.3343ZM41.5728 23.053H39.5495C38.5858 21.5288 36.887 20.514 34.9542 20.514C33.0217 20.514 31.3229 21.5288 30.3593 23.053H14.2604C13.2968 21.5288 11.598 20.514 9.6651 20.514C7.73264 20.514 6.03384 21.5288 5.07019 23.053H3.04688V18.9961H41.5728V23.053Z" fill="white"/>
</svg>
