<svg width="48" height="48" viewBox="0 0 48 48" fill="none" xmlns="http://www.w3.org/2000/svg">
<path d="M31.4625 13.5672C31.1951 13.2197 30.9286 12.8923 30.6775 12.5949C30.7023 12.3457 30.7155 12.0933 30.7155 11.8377C30.7155 9.96253 29.6133 7.61831 27.3462 4.67091C25.7698 2.62163 24.2137 1.06012 24.1483 0.994594L23.1536 0L22.1591 0.994594C22.0936 1.06003 20.5376 2.62153 18.9611 4.67091C16.6938 7.61822 15.5918 9.96253 15.5918 11.8377C15.5918 15.8304 18.7029 19.108 22.6279 19.3792C22.9363 22.1991 25.3314 24.4008 28.2318 24.4008C31.3409 24.4008 33.8701 21.8715 33.8701 18.7625C33.8701 17.3725 33.0826 15.6732 31.4625 13.5672ZM23.1226 16.5855C20.5184 16.5687 18.4048 14.4457 18.4048 11.8375C18.4049 9.89278 21.0115 6.38756 23.1536 4.03059C24.8919 5.94338 26.9357 8.61178 27.6447 10.5893L27.237 10.9969C27.1912 11.0427 26.1018 12.1358 25.0008 13.5671C24.1426 14.683 23.5203 15.6836 23.1226 16.5855ZM28.2317 21.5875C26.6739 21.5875 25.4066 20.3202 25.4066 18.7624C25.4066 17.6997 26.8618 15.6328 28.2324 14.0577C29.6027 15.6309 31.0569 17.6963 31.0569 18.7624C31.0569 20.3202 29.7896 21.5875 28.2317 21.5875Z" fill="white"/>
<path d="M30.7838 34.6275L30.4097 35.4542C29.2724 37.9676 26.7565 39.5918 24.0002 39.5918C21.2438 39.5918 18.7279 37.9676 17.5906 35.4542L17.2165 34.6275H6.58984V48H41.4105V34.6275H30.7838ZM9.403 45.1868V37.4407H15.4498C17.19 40.4839 20.4527 42.4049 24.0002 42.4049C27.5476 42.4049 30.8103 40.4838 32.5504 37.4407H38.5972V45.1868H9.403Z" fill="white"/>
<path d="M23.9999 32.019L22.0107 34.0082L23.9999 35.9973L25.9891 34.0082L23.9999 32.019Z" fill="white"/>
<path d="M20.9877 24.9947L18.9985 26.9839L20.9877 28.9731L22.9769 26.9839L20.9877 24.9947Z" fill="white"/>
<path d="M27.9892 26.9732L26 28.9624L27.9892 30.9516L29.9784 28.9624L27.9892 26.9732Z" fill="white"/>
</svg>
