<svg width="52" height="36" viewBox="0 0 52 36" fill="none" xmlns="http://www.w3.org/2000/svg">
<path d="M44.3828 4.44954H19.2969V3.43391H16.6118C17.1372 2.86527 17.5984 2.22806 17.9789 1.52952L15.3031 0.0721954C14.1739 2.1458 12.0072 3.43391 9.64874 3.43391C7.28741 3.43391 5.11946 2.14346 3.991 0.0661011L1.31371 1.52048C1.69508 2.22258 2.158 2.86283 2.68572 3.43391H0V4.95735C0 6.30143 1.09352 7.39485 2.4375 7.39485H3.56667L4.901 14.7339C5.20853 16.4251 6.67946 17.6527 8.39841 17.6527H9.57633C11.2549 19.8145 13.3529 21.6409 15.7311 23.0035L17.0018 35.9339H21.6348L23.9295 25.6581C24.6709 25.7375 25.4148 25.7777 26.1538 25.7777H39.7934L40.4941 27.9908L39.5107 35.9339H44.3586L48.9531 22.3448V27.3011H52V12.0667C52 7.86661 48.5829 4.44954 44.3828 4.44954ZM35.6214 7.49641C35.1694 9.24664 33.577 10.5433 31.6875 10.5433C30.1754 10.5433 28.9453 11.7734 28.9453 13.2855C28.9453 14.2375 28.1708 15.012 27.2188 15.012C26.2667 15.012 25.4922 14.2375 25.4922 13.2855C25.4922 11.7734 24.2621 10.5433 22.75 10.5433C20.9623 10.5433 19.4787 9.21678 19.2315 7.49641H35.6214ZM11.3983 14.1888C11.3543 14.4304 11.1441 14.6058 10.8986 14.6058H8.3983C8.15273 14.6058 7.94259 14.4304 7.89862 14.1889L6.49736 6.48079H12.7996L11.3983 14.1888ZM48.9531 12.8318L43.4119 29.2213L43.5997 27.7052L40.0462 16.4819L37.1413 17.4017L38.8287 22.7309H26.1538C25.1106 22.7309 24.0549 22.6372 23.016 22.4526L21.5803 22.1975L19.5895 31.1127L18.6039 21.0832L17.8721 20.7022C16.042 19.7491 14.3875 18.4807 12.99 16.9719C13.7078 16.4493 14.2271 15.6617 14.3958 14.734L15.7117 7.49641H16.1698C16.4228 10.8027 19.1204 13.436 22.4546 13.5837C22.6089 16.0774 24.6868 18.0589 27.2188 18.0589C29.7506 18.0589 31.8284 16.0776 31.9829 13.5841C35.425 13.4425 38.243 10.8417 38.7236 7.49641H44.3828C46.9029 7.49641 48.9531 9.54665 48.9531 12.0667V12.8318Z" fill="white"/>
</svg>
