<svg width="43" height="43" viewBox="0 0 43 43" fill="none" xmlns="http://www.w3.org/2000/svg">
<path d="M41.7402 17.3487C40.2168 17.3487 38.7024 17.4919 37.2171 17.7714V13.9406C39.6983 13.3674 41.5544 11.1413 41.5544 8.4883V5.59697C41.5543 2.5108 39.0435 0 35.9573 0C32.8711 0 30.3604 2.5108 30.3604 5.59697V8.48847C30.3604 11.1414 32.2162 13.3675 34.6976 13.9407V18.3852C33.1356 18.855 31.6216 19.4814 30.1814 20.2571C27.8699 19.0079 25.3694 18.144 22.7598 17.699V13.9406C25.241 13.3675 27.097 11.1414 27.097 8.48838V5.59697C27.097 2.5108 24.5862 0 21.5 0C18.4138 0 15.903 2.5108 15.903 5.59697V8.48847C15.903 11.1414 17.759 13.3675 20.2402 13.9407V17.4038C19.6995 17.3683 19.1555 17.3489 18.6086 17.3489H8.30244V13.9408C10.7837 13.3676 12.6396 11.1415 12.6396 8.48855V5.59697C12.6396 2.5108 10.1289 0 7.04268 0C3.9565 0 1.44571 2.5108 1.44571 5.59697V8.48847C1.44571 11.1414 3.30159 13.3675 5.78291 13.9407V17.3488H0V43H43V17.3487H41.7402ZM32.8799 8.48838V5.59697C32.8799 3.90007 34.2604 2.51953 35.9573 2.51953C37.6542 2.51953 39.0348 3.90007 39.0348 5.59697V8.48847C39.0348 9.73664 38.2875 10.8128 37.2171 11.2951V7.04268H34.6976V11.2951C33.6272 10.8127 32.8799 9.73656 32.8799 8.48838ZM18.4226 8.48838V5.59697C18.4226 3.90007 19.8031 2.51953 21.5 2.51953C23.1969 2.51953 24.5774 3.90007 24.5774 5.59697V8.48847C24.5774 9.73664 23.8301 10.8128 22.7598 11.2951V7.04268H20.2402V11.2951C19.1699 10.8127 18.4226 9.73656 18.4226 8.48838ZM3.96524 8.48838V5.59697C3.96524 3.90007 5.34577 2.51953 7.04268 2.51953C8.73958 2.51953 10.1201 3.90007 10.1201 5.59697V8.48847C10.1201 9.73664 9.37274 10.8128 8.30244 11.2951V7.04268H5.78291V11.2951C4.71262 10.8127 3.96524 9.73656 3.96524 8.48838ZM2.51953 22.2486C5.76486 23.9026 8.54407 26.3386 10.6291 29.3747C12.8959 32.6758 14.1954 36.492 14.4216 40.4804H8.26877C7.99397 35.1469 5.98028 30.0524 2.51953 25.9715V22.2486ZM12.706 27.9485C10.3795 24.5606 7.27666 21.8427 3.65282 19.9984C8.59001 20.5323 13.1639 22.7128 16.7255 26.2744C20.5583 30.1071 22.792 35.1119 23.0949 40.4805H16.944C16.7152 35.9803 15.2623 31.6712 12.706 27.9485ZM18.5071 24.4929C16.6703 22.656 14.5914 21.1495 12.3434 20.0003C17.2744 20.5372 21.8422 22.7168 25.4 26.2745C29.2327 30.1072 31.4663 35.112 31.7693 40.4806H25.6191C25.3136 34.4385 22.8159 28.8016 18.5071 24.4929ZM2.51953 30.246C4.42203 33.3242 5.53591 36.838 5.74537 40.4805H2.51953V30.246ZM34.2933 40.4805C33.988 34.4385 31.4903 28.8016 27.1815 24.4929C25.3446 22.656 23.2658 21.1495 21.0178 20.0003C25.9487 20.5372 30.5166 22.7168 34.0743 26.2745C37.9071 30.1073 40.1422 35.1119 40.4449 40.4806H34.2933V40.4805ZM35.856 24.4929C34.8691 23.5061 33.8122 22.615 32.697 21.8227C35.1423 20.7131 37.784 20.0597 40.4805 19.9045V30.9188C39.3157 28.57 37.764 26.4009 35.856 24.4929Z" fill="white"/>
</svg>
