<svg width="45" height="45" viewBox="0 0 45 45" fill="none" xmlns="http://www.w3.org/2000/svg">
<g clip-path="url(#clip0)">
<path d="M30.4783 34.5318C28.2237 32.4489 25.3755 31.1848 22.3471 30.9001V18.8179C24.9299 18.7365 30.4464 18.1079 34.1172 14.4371C38.9454 9.60894 38.5111 1.58787 38.4901 1.24867L38.4191 0.0899497L37.2603 0.0185385C36.9211 -0.00206099 28.9001 -0.436709 24.0719 4.39145C21.8626 6.60074 20.7557 9.47813 20.2061 11.9827C19.7762 11.2792 19.2623 10.6039 18.6471 9.98865C14.6521 5.9934 8.12521 6.25295 7.84952 6.266L6.65579 6.32196L6.59948 7.51569C6.58643 7.79172 6.32722 14.3183 10.3221 18.3132C13.2469 21.2383 17.5288 21.8827 19.721 22.0129V30.9001C16.6929 31.1848 13.8446 32.4489 11.5897 34.5318C9.02678 36.8994 7.45401 40.1115 7.1615 43.5763L7.04099 45.0001H35.027L34.9069 43.5763C34.614 40.1112 33.0416 36.8994 30.4783 34.5318ZM32.2602 12.5797C30.0135 14.8268 26.7687 15.6878 24.3545 16.0112L35.6917 4.67435C35.3683 7.0886 34.5069 10.333 32.2602 12.5797ZM25.9289 6.24849C28.1757 4.00178 31.4204 3.14038 33.8347 2.81697L22.4916 14.16C22.8116 11.7492 23.6716 8.50584 25.9289 6.24849ZM19.4171 17.2263L11.4091 9.21823C13.1724 9.57735 15.2639 10.3196 16.7897 11.8453C18.3157 13.3714 19.0577 15.4629 19.4171 17.2263ZM9.55172 11.0753L17.5597 19.0833C15.7964 18.7242 13.7049 17.9823 12.1792 16.4562C10.6531 14.9301 9.91118 12.8386 9.55172 11.0753ZM9.99049 42.3737C10.4766 40.1149 11.6481 38.0533 13.3715 36.4609C15.1393 34.8284 17.3565 33.8156 19.7206 33.541V38.3983H22.3471V33.541C24.7115 33.8156 26.9287 34.8284 28.6961 36.4609C30.42 38.0533 31.5914 40.1149 32.0772 42.3737H9.99049Z" fill="white"/>
</g>
<defs>
<clipPath id="clip0">
<rect width="45" height="45" fill="white"/>
</clipPath>
</defs>
</svg>
