<svg width="550" height="622" viewBox="0 0 550 622" fill="none" xmlns="http://www.w3.org/2000/svg">
<path fill-rule="evenodd" clip-rule="evenodd" d="M357.855 298.87C364.167 299.81 368.702 303.028 373.049 307.599C377.159 312.219 381.147 318.153 382.983 324.807C384.02 328.109 384.963 331.555 385.736 335.012C386.403 338.441 387.346 341.887 387.29 345.293C387.588 352.045 387.482 358.41 387.3 363.577C386.925 362.02 386.55 360.463 386.042 358.983C385.325 356.382 384.448 353.963 383.544 351.649C382.667 349.229 381.536 347.136 380.51 345.07C378.496 341.005 375.358 337.595 372.853 334.969C370.271 332.212 367.745 330.31 365.582 328.728C361.268 325.737 358.322 324.789 358.322 324.789C358.322 324.789 361.069 326.918 364.892 331.35C366.757 333.637 368.892 336.389 371.004 339.864C373.316 343.223 374.606 347.266 376.013 351.507C376.603 353.738 377.353 355.787 377.772 358.029C378.257 360.232 378.743 362.436 378.991 364.688C379.2 365.809 379.41 366.93 379.344 368.034C373.237 362.269 364.752 357.445 359.003 354.579C355.776 352.996 352.714 350.784 349.933 348.142C348.543 346.821 347.247 345.357 345.978 343.787C344.643 342.257 343.165 340.632 341.923 338.958C339.336 335.581 336.964 331.814 335.094 327.842C334.62 326.876 334.173 325.804 333.66 324.771C333.081 323.777 332.568 322.744 332.055 321.711C331.029 319.645 330.097 317.436 329.269 315.254C328.199 312.504 327.604 309.654 326.506 307.009C325.408 304.363 324.443 301.64 323.555 299.05C322.667 296.46 322.121 293.848 321.244 291.429C320.301 289.049 319.501 286.762 318.778 284.608C317.267 280.339 316.512 276.606 315.425 274.132C314.471 271.58 313.963 270.1 313.963 270.1C318.879 276.559 322.85 281.704 327.904 285.508C333.023 289.273 337.299 292.199 341.823 294.18C350.567 298.232 357.789 298.908 357.789 298.908L357.855 298.87Z" fill="white"/>
<path fill-rule="evenodd" clip-rule="evenodd" d="M334.342 239.319C339.385 238.69 344.841 239.685 349.277 242.428C353.845 245.095 358.12 249.086 362.02 253.65C369.054 263.137 374.482 274.891 376.373 283.467C375.717 282.34 374.956 281.185 374.167 280.135C372.914 278.29 371.635 276.55 370.195 274.991C368.678 273.3 367.089 272.095 365.555 270.68C362.471 268.125 359.421 266.085 356.651 264.679C353.843 263.208 351.344 262.266 349.209 261.645C344.74 260.519 341.992 260.522 341.992 260.522C341.992 260.522 342.726 260.716 344.034 261.286C345.341 261.856 347.278 262.593 349.324 263.975C351.437 265.319 353.848 267.022 356.358 269.2C358.935 271.34 361.583 274.059 364.071 276.96C365.235 278.502 366.294 280.016 367.231 281.778C368.197 283.435 369.123 285.026 369.89 286.799C370.287 287.633 370.723 288.534 371.12 289.368C364.583 286.517 356.66 285.094 351.264 284.508C345.516 283.773 338.581 281.154 332.772 276.813C327.2 272.423 320.707 267.061 315.797 260.154C309.012 251.854 303.341 242.728 298.47 235.888C296.252 232.385 294.41 229.374 292.871 227.341C291.464 225.23 290.664 224.009 290.664 224.009C296.269 228.913 301.273 232.479 306.266 234.809C308.814 235.988 311.275 236.863 313.62 237.539C315.964 238.216 318.061 238.77 320.146 239.154C328.345 240.593 334.342 239.319 334.342 239.319Z" fill="white"/>
<path fill-rule="evenodd" clip-rule="evenodd" d="M298.082 190.922C302.65 189.327 307.461 189.365 312.454 190.63C317.182 192.049 321.893 194.809 326.428 198.027C331.096 201.168 334.907 205.429 338.433 209.502C341.891 213.613 345.063 217.537 346.978 221.127C346.067 220.326 345.118 219.458 344.208 218.656C342.608 217.28 340.793 216.295 339.111 215.233C337.389 214.105 335.624 213.358 333.952 212.467C330.554 210.895 327.36 209.826 324.502 209.182C321.672 208.433 318.99 208.397 316.822 208.328C312.524 208.257 310.058 208.895 310.058 208.895C310.058 208.895 312.921 209.091 317.638 210.339C320.049 210.977 322.521 212.023 325.356 213.39C328.192 214.757 331.193 216.56 334.178 218.639C335.623 219.75 337.163 220.718 338.514 221.973C339.761 223.2 341.046 224.493 342.161 225.798C342.784 226.411 343.38 227.129 343.937 227.781C337.361 226.995 330.083 227.594 324.787 228.548C319.082 229.563 312.522 228.501 306.034 225.888C302.923 224.504 299.353 222.943 295.999 220.99C292.54 219.01 289.362 216.599 286.096 213.885C281.837 210.683 277.898 207.118 274.34 203.597C270.583 200.192 267.113 196.975 264.245 194.029C261.442 191.045 258.883 188.629 257.156 186.883C255.429 185.136 254.469 184.097 254.469 184.097C257.481 186.072 260.499 187.599 263.324 188.795C266.055 190.134 268.725 191.064 271.346 191.758C276.482 193.116 281.342 193.392 285.287 193.314C293.177 193.158 298.347 190.768 298.347 190.768L298.082 190.922Z" fill="white"/>
<path fill-rule="evenodd" clip-rule="evenodd" d="M255.434 151.041C270.447 142.563 292.961 158.836 302.929 169.099C301.936 168.612 300.943 168.125 299.989 167.705C298.356 166.88 296.667 166.265 294.979 165.651C293.252 164.97 291.719 164.62 290.108 164.138C286.963 163.306 284.022 162.977 281.275 162.979C278.593 162.943 276.342 163.189 274.472 163.479C270.77 164.126 268.734 165.046 268.734 165.046C268.734 165.046 271.261 164.817 275.476 165.203C277.589 165.481 280.149 165.766 282.874 166.487C285.534 167.246 288.452 168.298 291.382 169.522C292.871 170.252 294.284 170.85 295.641 171.658C297.064 172.427 298.383 173.168 299.712 174.081C300.391 174.484 301.003 174.927 301.615 175.369C295.85 175.975 289.395 178.137 285.207 179.777C280.451 181.66 274.757 181.78 268.462 180.564C262.007 179.529 255.404 176.717 248.43 172.966C244.16 170.659 240.105 167.96 236.299 165.383C232.426 162.845 228.867 160.389 225.899 158.034C222.904 155.784 220.377 153.882 218.606 152.516C216.902 151.112 215.82 150.321 215.82 150.321C227.649 155.861 237.16 156.358 244.316 154.942C251.246 153.747 255.395 150.975 255.395 150.975L255.434 151.041Z" fill="white"/>
<path fill-rule="evenodd" clip-rule="evenodd" d="M258.282 132.335C257.366 131.981 256.45 131.626 255.507 131.377C253.962 130.856 252.39 130.44 250.856 130.091C249.284 129.675 247.866 129.524 246.371 129.241C243.458 128.807 240.776 128.771 238.316 128.961C235.921 129.113 233.852 129.519 232.23 129.931C228.881 130.727 227.121 131.664 227.121 131.664C227.121 131.664 229.4 131.313 233.212 131.312C235.104 131.364 237.444 131.422 239.976 131.811C242.508 132.201 245.195 132.855 247.893 133.681C249.228 134.146 250.591 134.507 251.937 135.143C253.244 135.713 254.513 136.217 255.793 136.892C256.433 137.23 257.034 137.501 257.674 137.839C252.494 138.992 246.943 141.337 243.28 143.116C235.081 147.004 222.358 145.714 209.283 140.012C201.217 136.365 193.554 132.038 187.828 128.449C182.008 125.003 178.333 122.349 178.333 122.349C189.257 126.64 198.096 126.286 204.385 124.753C210.675 123.22 214.217 120.624 214.217 120.624C227.36 112.436 248.479 124.639 258.32 132.402L258.282 132.335Z" fill="white"/>
<path fill-rule="evenodd" clip-rule="evenodd" d="M416.249 356.037C410.241 359.27 401.832 364.168 395.012 369.206C395.354 368.119 395.448 366.91 395.752 365.757C396.149 363.394 396.69 361.126 397.297 358.819C397.827 356.38 398.644 354.128 399.384 351.744C400.835 347.081 403.048 342.507 404.372 338.539C405.857 334.39 407.518 330.848 408.936 327.802C411.877 321.738 414.233 318.324 414.233 318.324C414.233 318.324 411.552 320.418 407.816 324.814C405.935 327.064 403.81 329.811 401.691 333.176C399.363 336.485 397.696 340.475 395.197 344.861C394.038 347.134 392.802 349.274 391.864 351.774C390.782 354.18 389.767 356.547 388.972 359.141C388.415 360.619 387.962 362.126 387.509 363.633C387.521 358.476 387.731 352.139 388.394 345.361C388.896 341.961 388.704 338.433 388.958 334.911C389.173 331.323 389.56 327.724 390.051 324.153C391.442 316.95 392.028 310.039 394.367 303.704C396.47 297.419 400.079 291.588 404.482 287.425C404.482 287.425 410.292 283.242 414.762 272.647C416.826 267.361 419.215 260.198 418.874 251.696C418.665 243.117 417.629 232.356 412.527 220.857C412.527 220.857 413.829 222.939 416.096 226.679C418.457 230.276 420.989 235.993 424.034 242.743C425.556 246.117 427.1 249.834 428.656 253.723C430.145 257.65 431.248 261.979 432.533 266.469C433.78 270.892 434.866 275.498 435.953 280.103C436.973 284.747 437.254 289.644 437.799 294.387C438.119 298.285 438.295 302.089 438.356 305.694C438.372 307.548 438.35 309.337 438.289 311.059C438.162 312.82 437.864 314.592 437.593 316.259C436.589 323.059 435.027 329.207 433.106 334.587C432.113 337.297 431.136 339.73 429.911 342.042C428.581 344.326 427.163 346.306 425.668 348.154C422.743 351.81 419.554 354.556 416.233 356.313L416.249 356.037Z" fill="white"/>
<path fill-rule="evenodd" clip-rule="evenodd" d="M323.333 323.329C323.741 324.334 324.045 325.311 324.453 326.317C324.69 327.333 324.993 328.31 325.258 329.221C325.826 331.11 326.593 332.883 327.321 334.59C328.882 338.031 330.763 341.108 332.699 343.975C335.992 349.781 340.179 354.534 344.234 358.298C348.223 362.101 352.316 364.866 354.975 366.691C357.701 368.477 359.543 369.357 359.543 369.357C368.42 374.397 373.953 384.048 376.098 395.494C376.908 401.148 377.095 407.254 376.769 413.393C376.587 416.429 376.443 419.531 375.985 422.551C375.383 425.476 374.715 428.439 374.037 431.232L375.019 431.548C376.117 428.866 377.309 426.041 378.539 423.282C379.731 420.457 380.714 417.577 381.972 414.713C384.422 409.024 387.187 403.418 390.459 398.227C396.451 387.812 403.558 378.7 413.865 374.472C413.865 374.472 415.884 373.829 419.073 372.149C422.395 370.392 426.323 367.393 430.644 362.479C434.898 357.604 439.401 350.72 443.054 341.312C444.572 336.61 445.731 331.14 446.542 325.074C446.962 321.989 447.238 318.809 447.398 315.431C447.459 313.709 447.52 311.986 447.581 310.264C447.537 308.514 447.349 306.67 447.162 304.826C447.162 304.826 447.377 305.5 447.741 306.886C448.067 308.205 448.673 310.16 448.971 312.65C449.776 317.686 450.818 324.803 451.75 333.405C451.959 335.592 452.169 337.778 452.455 340.097C452.532 342.361 452.515 344.768 452.499 347.175C452.465 351.988 452.349 357.117 452.072 362.427C451.967 373.054 449.56 383.69 447.22 394.286C446.155 398.547 445.222 402.73 443.715 406.538C442.17 410.279 440.548 413.887 438.809 417.297C435.399 424.078 431.697 430.052 427.796 435.077C419.381 444.684 410.343 450.481 402.029 452.039C398.26 452.724 393.687 453.702 388.953 454.861C386.553 455.46 384.191 456.125 381.764 456.829C379.297 457.466 376.804 458.209 374.519 459.007C375.204 457.898 375.849 456.723 376.6 455.575C377.891 453.225 379.116 450.913 380.617 448.618C382.002 446.125 383.619 444.029 385.186 441.696C388.37 437.266 391.802 432.959 395.239 429.27C398.533 425.486 401.309 422.183 403.985 419.47C409.166 414.055 412.868 411.277 412.868 411.277C412.868 411.277 409.238 412.504 403.754 415.876C400.984 417.667 397.75 419.728 394.296 422.627C390.975 425.45 386.831 428.84 382.892 432.733C380.933 434.851 378.924 436.731 377.015 439.086L376.441 439.775C377.567 440.185 355.863 493.046 354.583 492.371L342.139 516.222C342.139 516.222 337.94 523.018 331.594 533.285C328.416 538.332 324.857 544.401 320.729 550.711C316.42 556.862 311.79 563.376 307.161 569.89C298.227 583.173 287.926 595.478 280.46 604.887C272.956 614.23 267.935 620.528 267.935 620.528L261.938 615.409C261.938 615.409 267.947 607.914 276.946 596.723C281.394 591.114 286.785 584.689 292.159 577.474C297.39 570.166 302.864 562.361 308.404 554.517C311.069 550.567 314.087 546.767 316.543 542.762C318.998 538.757 321.426 534.857 323.788 530.996C328.445 523.311 333.041 516.283 336.485 510.016C343.085 497.293 347.554 488.83 347.554 488.83C347.554 488.83 349.116 485.878 351.434 481.332C353.542 476.73 356.091 470.451 358.784 464.266C361.334 457.986 364.275 451.923 365.781 447.05C367.327 442.243 368.392 439.048 368.392 439.048L368.166 436.072C368.045 433.124 367.499 430.512 367.085 427.823C366.098 422.627 364.775 418.071 362.667 414.149C360.731 410.216 358.718 407.216 356.908 404.719C353.234 399.934 350.382 397.777 350.382 397.777C350.382 397.777 352.655 401.07 355.192 407.405C356.323 410.564 358.011 414.376 358.744 418.832C359.505 423.183 359.929 428.174 359.984 433.291C359.912 435.908 359.973 438.447 359.73 441.075C359.553 443.664 359.376 446.253 358.78 448.731C358.515 449.951 358.184 451.209 357.88 452.362C356.788 450.335 355.486 448.252 354.157 446.274C352.723 444.269 351.117 442.274 349.589 440.412C346.428 436.659 343.195 433.393 340.558 430.845C334.556 425.108 330.386 416.883 327.822 407.456C326.211 402.712 324.959 397.67 324.248 392.491C323.873 389.868 323.669 387.235 323.598 384.524C323.46 381.852 323.008 379.097 322.936 376.386C322.534 369.606 323.473 362.845 322.944 356.761C322.916 353.669 322.966 350.71 323.093 347.884C323.176 346.504 323.259 345.124 323.342 343.744C323.293 342.441 323.243 341.138 323.166 339.94C322.99 335.071 323.172 330.969 323.393 327.999C323.614 325.029 323.239 323.472 323.305 323.434L323.333 323.329Z" fill="white"/>
<path fill-rule="evenodd" clip-rule="evenodd" d="M399.448 268.428C395.503 272.768 389.875 279.242 385.935 285.266C385.803 284.278 385.67 283.289 385.538 282.301C385.235 280.258 385.075 278.309 384.97 276.15C384.733 274.069 384.905 271.927 384.734 269.807C384.469 265.699 384.376 261.581 384.619 257.888C384.719 254.101 385.194 250.806 385.558 247.93C385.961 245.121 386.331 242.863 386.574 241.301C386.855 239.805 387.076 238.967 387.076 238.967C387.076 238.967 385.509 241.3 383.875 245.803C382.926 248.131 381.905 250.946 381.022 254.301C380.101 257.59 379.422 261.448 379.002 265.599C378.897 267.702 378.582 269.75 378.659 272.014C378.527 274.222 378.262 276.507 378.272 278.809C378.189 280.189 378.239 281.492 378.261 282.9C376.027 274.346 371.35 262.51 369.227 250.34C367.749 244.453 366.983 238.419 367.16 232.633C367.574 226.798 368.242 221.704 371.034 217.059C371.034 217.059 374.841 212.178 376.078 202.579C376.371 200.189 376.603 197.39 376.415 194.481C376.162 191.61 375.715 188.407 374.811 185.028C373.03 178.163 369.935 170.111 363.884 162.005C363.884 162.005 365.312 163.392 367.806 165.846C370.327 168.196 373.593 171.976 377.294 176.656C379.159 178.943 381.112 181.535 383.142 184.259C385.238 186.944 387.279 189.84 389.105 193.126C392.851 199.557 396.96 206.308 399.867 213.582C404.517 225.522 407.192 236.661 406.518 246.464C406.042 256.152 403.978 263.569 399.382 268.466L399.448 268.428Z" fill="white"/>
<path fill-rule="evenodd" clip-rule="evenodd" d="M363.985 201.455C361.783 206.2 358.235 213.505 356.315 219.951C355.917 219.117 355.587 218.244 355.189 217.41C354.395 215.742 353.761 213.892 353.165 212.108C352.36 210.268 351.803 208.551 351.102 206.739C349.872 203.105 348.879 199.422 348.185 196.098C347.385 192.746 347.176 189.494 346.707 187.015C345.968 181.941 345.968 178.744 345.968 178.744C345.968 178.744 345.096 181.205 344.594 185.671C344.329 187.956 344.218 190.506 344.257 193.769C344.256 196.965 344.488 200.56 345.045 204.408C345.375 206.346 345.668 208.218 346.247 210.278C346.721 212.31 347.289 214.199 347.907 216.325C348.194 217.578 348.547 218.793 348.9 220.008C346.748 216.467 343.709 212.466 340.873 207.903C337.933 203.312 335.263 198.12 332.577 193.203C329.984 188.143 327.96 182.841 326.907 177.684C325.721 172.604 325.572 167.629 327.156 162.889C327.156 162.889 329.601 157.647 328.962 148.786C328.675 144.336 327.385 139.228 324.709 133.418C323.352 130.479 321.681 127.457 319.447 124.231C317.224 121.175 314.515 118.047 311.216 114.82C311.216 114.82 312.689 115.826 315.31 117.585C317.864 119.382 321.527 121.865 325.532 125.392C329.604 128.88 334.26 132.915 338.921 137.569C343.423 142.405 348.128 147.743 352.293 153.219C355.614 157.855 358.29 162.6 360.507 167.168C362.725 171.736 364.379 176.099 365.207 180.412C367.032 189.026 366.612 196.373 363.996 201.626L363.985 201.455Z" fill="white"/>
<path fill-rule="evenodd" clip-rule="evenodd" d="M314.628 148.079C313.48 152.655 312.045 159.173 311.735 165.035C311.283 164.411 310.726 163.759 310.273 163.134C309.198 161.896 308.321 160.543 307.339 159.162C306.357 157.78 305.546 156.388 304.658 154.863C302.997 152.013 301.497 148.98 300.427 146.23C299.186 143.49 298.243 141.11 297.52 138.956C296.113 134.714 295.7 132.025 295.7 132.025C295.7 132.025 295.33 134.283 295.545 138.153C295.705 140.102 295.925 142.46 296.576 145.099C297.188 147.672 298.004 150.748 299.174 153.974C299.825 155.548 300.343 157.199 301.204 158.829C301.959 160.43 302.754 162.099 303.747 163.651C304.287 164.579 304.866 165.573 305.407 166.502C294.881 156.652 274.773 138.267 277.323 121.333C277.323 121.333 278.725 116.432 277.043 108.977C275.24 101.771 270.595 91.5138 258.182 82.2302C258.182 82.2302 259.567 82.933 261.906 84.0564C264.256 85.351 267.589 86.9614 271.423 89.4335C275.219 91.8394 279.626 94.6877 284.161 97.906C288.668 101.229 293.143 105.104 297.457 109.161C304.369 115.7 309.245 123.159 312.279 129.737C315.192 136.564 315.98 142.941 314.722 147.936L314.628 148.079Z" fill="white"/>
<path fill-rule="evenodd" clip-rule="evenodd" d="M264.501 112.11C264.291 116.316 264.268 122.367 265.018 127.612C264.472 127.131 263.925 126.65 263.445 126.131C262.353 125.169 261.327 124.169 260.367 123.13C259.302 122.063 258.37 120.919 257.438 119.775C255.573 117.488 253.841 115.123 252.423 112.841C250.912 110.703 249.781 108.609 248.843 106.847C246.968 103.323 246.234 100.998 246.234 100.998C246.234 100.998 246.262 103.024 247.1 106.442C247.552 108.132 248.131 110.192 249.063 112.401C249.996 114.61 251.226 117.179 252.665 119.803C253.438 121.129 254.21 122.454 255.153 123.769C256.097 125.084 257.04 126.399 258.05 127.676C258.684 128.461 259.28 129.179 259.98 129.925C249.432 122.929 229.511 109.585 229.242 94.2041C229.242 94.2041 229.667 89.606 227.169 83.3372C224.67 77.0685 219.264 68.8531 207.623 61.9608C207.623 61.9608 212.572 63.6062 219.711 66.7282C226.717 69.9273 235.914 74.603 244.096 80.5803C257.463 90.2845 265.064 102.726 264.528 112.005L264.501 112.11Z" fill="white"/>
<path fill-rule="evenodd" clip-rule="evenodd" d="M198.534 95.2229C198.534 95.2229 205.959 99.5984 213.131 104.299C216.745 106.545 220.303 109 222.962 110.825C225.621 112.65 227.381 113.844 227.381 113.844C219.337 112.67 204.651 109.683 189.976 102.605C179.301 97.3699 170.485 90.6079 164.163 85.2345C157.84 79.8611 154.04 75.7714 154.04 75.7714C154.04 75.7714 159.518 74.9774 168.042 75.6057C176.527 76.1677 187.909 78.5052 199.081 83.9837C214.434 91.4655 224.949 103.275 229.826 109.668C229.826 109.668 227.878 108.761 224.965 107.261C222.025 105.866 218.224 103.908 214.262 102.131C206.473 98.5004 198.429 95.1952 198.429 95.1952L198.534 95.2229Z" fill="white"/>
</svg>
